PathFileType	4	(X/Y/Z)	58_2_61_p1_0-177.trc
DataRate	CameraRate	NumFrames	NumMarkers	Units	OrigDataRate	OrigDataStartFrame	OrigNumFrames
32.0	32.0	5	27	m	32.0	133	178
Frame#	Time	RHip			RKnee			RAnkle			RBigToe			RSmallToe			RHeel			LHip			LKnee			LAnkle			LBigToe			LSmallToe			LHeel			Neck			Head			Nose			RShoulder			RElbow			RWrist			RThumb			RIndex			RPinky			LShoulder			LElbow			LWrist			LThumb			LIndex			LPinky			
		X1	Y1	Z1	X2	Y2	Z2	X3	Y3	Z3	X4	Y4	Z4	X5	Y5	Z5	X6	Y6	Z6	X7	Y7	Z7	X8	Y8	Z8	X9	Y9	Z9	X10	Y10	Z10	X11	Y11	Z11	X12	Y12	Z12	X13	Y13	Z13	X14	Y14	Z14	X15	Y15	Z15	X16	Y16	Z16	X17	Y17	Z17	X18	Y18	Z18	X19	Y19	Z19	X20	Y20	Z20	X21	Y21	Z21	X22	Y22	Z22	X23	Y23	Z23	X24	Y24	Z24	X25	Y25	Z25	X26	Y26	Z26	X27	Y27	Z27	
133	4.15625	0.39636588953498725	0.5183265073091411	0.97425938529428	0.36278765140908575	0.6202118089523361	1.4454695879579416	0.355281316245259	0.7544151572959887	1.8817698882108775	0.2892777551759627	0.5514547665162485	1.9514099290171063	0.362730825992002	0.548986608592386	1.9262006813458683	0.32367857230003094	0.8604119617764472	1.9403776701833528	0.19674999053483483	0.5678638429154307	1.002667820168273	0.16798752623163923	0.621008844787719	1.4404307837178598	0.12679078033971194	0.751266050013072	1.8745045918285568	0.12112716537596914	0.5290956643548725	1.9339956082698366	0.06982996442983401	0.5993220855496868	1.9461309222175458	0.14291686699528933	0.8664223858926295	1.9443974951334881	0.1667559591755903	0.27953377907970034	0.5364181787634706	0.08187807199615182	0.11535324066212031	0.3413144334010177	0.1234469469447793	0.12758440710212526	0.4842852873939703	0.3191211388354399	0.2749765609814598	0.536956562227454	0.40441719505393464	0.32174923417889745	0.8214320624719742	0.3029266065512899	0.22820747376999093	1.0748124999679192	0.24287951066010494	0.24006901787208793	1.170924834179028	0.26324348119626156	0.25701213756744046	1.230634682045253	0.2898654174059233	0.27941404884011417	1.238550177534456	0.049935388447879474	0.36982209801320726	0.6124326232087176	0.1280416201417417	0.38808962367764577	0.8806843181245179	0.21909256541504954	0.3166322447553467	1.0842607699702451	0.26035943922563154	0.2551088561610945	1.1583009433172906	0.25082303602818035	0.2623419559932024	1.1939186110879108	0.2590276983964689	0.2719524201606885	1.1791891229457188
134	4.1875	0.3880219065908281	0.5333736703201875	0.9805536525500472	0.35433938892177325	0.6216472985000783	1.4463040046375493	0.3552337730602348	0.7543974154004456	1.8811818187731588	0.293248945861262	0.5651430674300101	1.9575427993888572	0.36740109466061494	0.563141571813547	1.9362835332229615	0.3228015760791011	0.8579414507124095	1.9352901493229067	0.1871824667328723	0.58322244346659	1.009519571097747	0.16283891470977982	0.6384581978500272	1.4411964570537659	0.1267859431062465	0.7508346784246649	1.8741427630987797	0.12510760799452333	0.5413957084661881	1.935600897766582	0.07151511377263077	0.5959288393047907	1.9454334316890787	0.14220541115338634	0.863298702021916	1.939097928214214	0.15841288154349703	0.30390705228604237	0.5365105468433614	0.08975002669208869	0.10630515358378598	0.3387662975951375	0.1200078242420835	0.11729951510829667	0.4780921857818802	0.3155619804971077	0.2864736222254818	0.5437104710722436	0.39382139045053194	0.3282525566787872	0.8336129655470643	0.28049917051826473	0.26617952172386855	1.085754026609848	0.22722850266129055	0.25148583634343125	1.1768412591780584	0.2375954896614701	0.2703958044068582	1.2343297713735597	0.27946608975340637	0.29968159865229654	1.2458193856118485	0.04575536509669219	0.36899646903800903	0.6122994196600476	0.11569807274283561	0.3715575155216539	0.8797808398868463	0.20201043381135794	0.32864696084195155	1.086736047367654	0.24008475307538568	0.2519200807528741	1.165306822394259	0.23553189988691525	0.23708236105098587	1.190956355526215	0.24585632772675192	0.285335310691481	1.187949777846471
135	4.21875	0.3803720866611266	0.5330085896701867	0.9805419678696047	0.3497029788986918	0.6222964073804731	1.450719045656384	0.35522778876185956	0.7542418710229627	1.8811664038237164	0.2889508576113022	0.5505278611585834	1.950784206422662	0.36257210142633417	0.5465942212093217	1.929483343906103	0.3281701062619447	0.8623560183680732	1.9404945985366762	0.1840249310723541	0.5675544768782722	1.0161417522146312	0.16318183209885628	0.6365741333614667	1.4454949028051882	0.12664510708947524	0.7515487212158484	1.8746748215585538	0.12120994012950775	0.5291412920874733	1.9341612192134507	0.07040500214782779	0.5973194360727895	1.9498153626669235	0.1446773542722941	0.8327340005737215	1.931834960552871	0.1516026159705047	0.30328385684057096	0.5335217391551074	0.08994284754570403	0.10663877931810933	0.33846965703523246	0.11633800362851875	0.12483746260067331	0.4680746066686855	0.311135866954389	0.28693363694860097	0.5437170187312934	0.37970900453473516	0.370383947938586	0.8448394350912647	0.2796480170616624	0.2689400552299832	1.0826238618882371	0.21693632730617096	0.24072325524670046	1.1751693780127945	0.2338020209246878	0.26311153601754894	1.2317906314204778	0.27432320848260916	0.30191445936683686	1.249276563963652	0.038209434497134265	0.3689665320259055	0.6124117287191697	0.10785160046486729	0.3710794159970334	0.8832784723614319	0.19794848765008108	0.3259871561637348	1.0906720395724854	0.23017956883440863	0.24053925577032667	1.1684422521539377	0.23009283930161523	0.2361376504404875	1.199001901008795	0.23680384630860732	0.28536768436325244	1.190228234120088
136	4.25	0.37051860934652875	0.5220115003355211	0.983801997481315	0.34912402740688764	0.6248449154645351	1.4477135976527347	0.3554190310199603	0.7540062491594982	1.8818258460770358	0.2895426688520102	0.5513671881537129	1.9517011885666327	0.3635178992980717	0.5479552606164837	1.9306048759815655	0.3289867891343449	0.8629713637455133	1.9419862323352675	0.18126479472088844	0.5970834612830676	1.0109780659965997	0.15023311425935607	0.6399777707692099	1.4548438350395567	0.12677644064921548	0.7512353095627698	1.8747432996151312	0.12409875613577408	0.5426964793078791	1.9399169084379269	0.07033057329331023	0.597833514820777	1.9499621228165207	0.14492086919641883	0.8318060464114624	1.9316396511074585	0.15101490343073973	0.30438016076653174	0.5336703256035521	0.09247314275456558	0.1165551655959483	0.32722505313513156	0.11320601956453591	0.11437694212781609	0.46218691193571737	0.30749015602320684	0.28946511073834985	0.5477220973689368	0.3644964799761324	0.36194152337649704	0.8516583866959725	0.2716675106704474	0.28066378240137835	1.0852532663950747	0.2054422114541475	0.2787949033573996	1.1796700392234525	0.2167730621997196	0.278899939298673	1.229311168879161	0.2688850231155842	0.31661877088130824	1.2507011857455494	0.033969298868319515	0.3658931722185332	0.6088169993025683	0.09086731981589093	0.3937315004504671	0.8784356685400416	0.17901476878556735	0.30421898494465915	1.0827473881675296	0.21473718698630534	0.23037579758216598	1.1602853013157512	0.20906363500623948	0.2383525411893936	1.1935965271595603	0.2032976101772306	0.29498989503475787	1.1896532598281395
137	4.28125	0.36201360039249886	0.5320678425695522	0.9764529959698162	0.3449847213388627	0.6404424524843053	1.4518445327182699	0.35645537084938456	0.7571837487517769	1.8875739431181322	0.28879876904265805	0.5497511189616113	1.950558383449035	0.3654724386768152	0.5595448164091746	1.9397736657782305	0.32943025273793386	0.8638230337431939	1.946066876416525	0.17252157188983358	0.5791946252162404	1.0045424259456983	0.14947278370606065	0.6356861070306966	1.4538418269139433	0.12691354843857824	0.7497269288393748	1.8783473668419506	0.1276585980590817	0.5255491764231275	1.9285599205089747	0.07044575068946358	0.5980842154755845	1.9504173664293656	0.14853009461683417	0.8476431054503327	1.9374988936952817	0.13965232057304477	0.3036978536781265	0.527150473707088	0.10675033183262242	0.10670555133774853	0.317392114117163	0.11574499100182815	0.12408847307575474	0.45488907475867413	0.2918700535416701	0.28708329958875806	0.5514242216490964	0.35494899533463076	0.38350941011748557	0.8473838121788605	0.2715445220327021	0.2796949389091009	1.0813697494031376	0.19267684915924627	0.2764734952766003	1.176735459379007	0.19657601197423796	0.27818398983319326	1.2160107013223145	0.22767647744110386	0.35496826881704147	1.23901655241502	0.025596508715937924	0.36220393045356075	0.609460203955717	0.07367689272058592	0.4215445105644866	0.8817163979700313	0.15875552228743733	0.31378630379999023	1.0893132741067413	0.1875168962976451	0.28003342141229315	1.167059721949766	0.17736822950788966	0.28450149265511393	1.1959026166197988	0.18258220053102597	0.3199525983213179	1.1959806203123942
